<?xml version="1.0" encoding="UTF-8" standalone="no"?>
<svg width="150px" height="44px" viewBox="0 0 150 44" version="1.1" xmlns="http://www.w3.org/2000/svg" xmlns:xlink="http://www.w3.org/1999/xlink">
    <!-- Generator: Sketch 50.2 (55047) - http://www.bohemiancoding.com/sketch -->
    <title>Group 2</title>
    <desc>Created with Sketch.</desc>
    <defs></defs>
    <g id="Droplet-Homepage" stroke="none" stroke-width="1" fill="none" fill-rule="evenodd">
        <g id="desktop--droplet--home" transform="translate(-645.000000, -40.000000)" fill="#422056" fill-rule="nonzero">
            <g id="Group-2" transform="translate(645.000000, 40.000000)">
                <path d="M23.8956412,31.4487152 C20.9169602,31.2489419 20.9169602,31.2489419 20.9169602,29.3177998 L20.9169602,0.883396726 C20.9169602,0.617032295 20.7845743,0.417258971 20.5859956,0.217485648 C20.3874169,0.0843034318 20.1226452,-0.0488787839 19.9240665,0.017712324 L13.0400036,1.01657894 C12.9076178,1.01657894 12.775232,1.14976116 12.775232,1.34953448 L12.775232,2.61476553 C12.775232,2.81453885 12.9076178,2.94772107 13.0400036,2.94772107 L14.8934052,3.2140855 C15.5553343,3.28067661 15.9524918,5.07863652 15.9524918,7.54250751 L15.9524918,11.4713829 C15.9524918,11.537974 15.9524918,11.537974 15.8862989,11.537974 C15.8862989,11.537974 15.8201059,11.6045651 15.753913,11.537974 C14.4962477,11.0052451 13.0400036,10.7388807 11.5175667,10.7388807 C8.07553525,10.7388807 5.22924004,11.8043384 3.17725977,13.8686628 C1.1252795,15.9995782 0,19.1293603 0,22.8584623 C0,29.9171198 3.50822433,34.1123596 9.33320058,34.1123596 C11.5175667,34.1123596 13.6357399,33.2466751 15.9524918,31.5153063 L15.9524918,32.7805374 C15.9524918,33.2466751 16.2834563,33.5796307 16.7468067,33.5796307 L23.8294483,33.5796307 C24.028027,33.5796307 24.1604128,33.4464485 24.1604128,33.2466751 L24.1604128,31.7150797 C24.2266058,31.5818975 24.0942199,31.4487152 23.8956412,31.4487152 Z M16.0186847,18.0639026 L16.0186847,25.9216533 C16.0186847,26.9205199 16.0186847,27.5198399 15.6877201,28.185751 C14.9595981,30.1168931 13.4371611,31.0491686 11.1204092,31.0491686 C6.95025575,31.0491686 5.42781878,26.5875644 5.42781878,22.3923246 C5.42781878,18.929587 6.22213372,13.0695695 11.5175667,13.0695695 C13.4371611,13.0695695 14.9595981,14.001845 15.6877201,15.6000316 C15.9524918,16.2659426 16.0186847,16.8652626 16.0186847,18.0639026 Z" id="Shape"></path>
                <path d="M55.5431826,10.8764045 C48.3221171,10.8764045 44.4078947,15.0233313 44.4078947,22.5272941 C44.4078947,29.9654327 48.3221171,34.1123596 55.475696,34.1123596 C62.6967614,34.1123596 66.6109838,30.031257 66.6109838,22.5272941 C66.6784704,15.0233313 62.764248,10.8764045 55.5431826,10.8764045 Z M61.2120564,22.5272941 C61.2120564,26.7400452 60.1997575,31.8085113 55.5431826,31.8085113 C50.8866077,31.8085113 49.9417954,26.8058694 49.9417954,22.5931184 C49.9417954,18.3145431 50.8866077,13.246077 55.5431826,13.246077 C60.1997575,13.1802527 61.2120564,18.2487188 61.2120564,22.5272941 Z" id="Shape"></path>
                <path d="M82.5076258,10.8764045 C79.7856566,10.8764045 77.3956348,12.5325843 75.6695079,13.7250337 C75.4703394,13.8575281 75.271171,13.9900225 75.0720025,14.1225169 L74.872834,12.1351011 C74.872834,11.8038652 74.6736655,11.5388764 74.4081075,11.2738876 C74.1425495,11.0751461 73.8106021,11.0088989 73.4786546,11.0088989 L67.6363791,12.0026067 C67.5036001,12.0026067 67.3708211,12.1351011 67.3708211,12.3338427 L67.3708211,13.5925393 C67.3708211,13.7912809 67.5036001,13.9237753 67.6363791,13.9237753 L69.2961165,14.188764 C70.1591799,14.3212584 70.3583484,14.3875056 70.3583484,15.8449438 L70.3583484,39.6939326 C70.3583484,41.6813483 70.3583484,41.6813483 67.4372106,41.8800899 C67.2380421,41.8800899 67.1052632,42.0125843 67.1052632,42.2113258 L67.1052632,43.668764 C67.1052632,43.8675056 67.2380421,44 67.4372106,44 L78.9225931,44 C79.1217616,44 79.2545406,43.8675056 79.2545406,43.668764 L79.2545406,42.2113258 C79.2545406,42.0125843 79.1217616,41.8800899 78.9225931,41.8800899 C75.271171,41.6151011 75.271171,41.6151011 75.271171,39.6939326 L75.271171,33.4666966 C76.3334029,33.8641798 78.0595297,34.1954157 79.8520461,34.1954157 C85.0968161,34.1954157 91.2710391,32.0755056 91.2710391,22.0059326 C91.4038181,18.693573 90.5407546,10.8764045 82.5076258,10.8764045 Z M80.781499,14.0562697 C82.0428994,14.0562697 86.026269,14.6524944 86.026269,22.4034157 C86.026269,28.8293933 84.1009737,31.9430112 80.0512145,31.9430112 C77.8603612,31.9430112 76.2670134,30.9493034 75.6031184,29.094382 C75.3375604,28.3656629 75.3375604,27.5044494 75.3375604,26.5107416 L75.3375604,19.2897978 C75.3375604,18.2960899 75.5367289,17.6998652 75.8686764,16.9711461 C76.7981293,15.1162247 78.5242562,14.0562697 80.781499,14.0562697 Z" id="Shape"></path>
                <path d="M105.251815,31.4935865 C102.189201,31.2944248 102.189201,31.2944248 102.189201,29.3028082 L102.189201,0.689916232 C102.189201,0.490754571 102.121143,0.29159291 101.916969,0.158818469 C101.780853,0.0260440282 101.576679,-0.0403431921 101.372505,0.0260440282 L94.2944646,1.08823955 C94.1583485,1.08823955 94.0222323,1.22101399 94.0222323,1.42017566 L94.0222323,2.68153284 C94.0222323,2.8806945 94.1583485,3.01346894 94.3625227,3.01346894 L96.0639746,3.14624338 C96.6764973,3.21263061 97.1529038,5.07147278 97.1529038,7.52779993 L97.1529038,29.3028082 C97.1529038,31.2944248 97.1529038,31.2944248 94.0902904,31.4935865 C93.8861162,31.4935865 93.75,31.6263609 93.75,31.8255226 L93.75,33.2860414 C93.75,33.4852031 93.8861162,33.6179775 94.0902904,33.6179775 L105.251815,33.6179775 C105.455989,33.6179775 105.592105,33.4852031 105.592105,33.2860414 L105.592105,31.8255226 C105.592105,31.6263609 105.455989,31.4935865 105.251815,31.4935865 Z" id="Shape"></path>
                <path d="M126.809211,20.0259732 C126.809211,17.8537734 126.149115,10.8764045 117.50187,10.8764045 C110.966929,10.8764045 107.072368,15.2866283 107.072368,22.6589426 C107.072368,30.3603781 110.504863,34.1123596 117.56788,34.1123596 C121.990517,34.1123596 125.026954,31.9401598 126.479163,27.7274087 C126.545173,27.5957603 126.479163,27.3982876 126.281134,27.3324633 L124.894935,26.6083967 C124.762916,26.5425725 124.564887,26.6083967 124.432868,26.7400452 C123.112678,29.3730146 121.59446,31.0844447 118.492013,31.0844447 C116.841775,31.0844447 115.521585,30.5578508 114.531443,29.5704873 C113.079233,28.1223541 112.353129,25.6210332 112.419138,22.1323487 L124.630897,22.1323487 C126.083106,22.1323487 126.809211,21.4082821 126.809211,20.0259732 Z M112.485148,19.696852 C112.551157,18.3145431 113.079233,13.1802527 117.237832,13.1802527 C121.000374,13.1802527 121.396431,16.9980584 121.396431,18.6436643 C121.396431,19.3677308 121.198403,19.696852 120.20826,19.696852 L112.485148,19.696852 Z" id="Shape"></path>
                <path d="M149.125299,28.5236932 C148.587022,28.0078163 147.84689,27.6853933 147.039474,27.6853933 C145.357356,27.6853933 144.078947,28.9750855 144.078947,30.71617 C144.078947,32.3927699 145.290072,33.6179775 146.972189,33.6179775 C148.721591,33.6179775 150,32.4572545 150,30.71617 C150,29.8778701 149.663577,29.1040547 149.125299,28.5236932 Z" id="Shape"></path>
                <path d="M141.15859,8.78799649 L135.988161,8.78799649 L135.988161,2.30813335 C135.988161,2.10977019 135.853864,1.97752809 135.652419,1.97752809 L134.30945,1.97752809 C134.175153,1.97752809 134.040857,2.04364914 133.973708,2.17589125 L131.354919,8.72187543 C131.354919,8.78799649 131.287771,8.78799649 131.220623,8.78799649 L128.266092,8.78799649 C127.997498,8.78799649 127.796053,8.98635964 127.796053,9.25084385 L127.796053,10.9038702 C127.796053,11.1683544 127.997498,11.3667175 128.266092,11.3667175 L130.952029,11.3667175 L130.952029,28.7565543 C130.952029,33.7156332 135.048083,34.1123596 136.323903,34.1123596 C138.60695,34.1123596 140.419957,33.1205438 141.561481,31.2691543 C141.628629,31.2030332 141.628629,31.0707911 141.561481,30.938549 L140.957145,29.682249 C140.889996,29.5500069 140.822848,29.4838859 140.688551,29.4838859 C140.554254,29.4838859 140.419957,29.5500069 140.352809,29.616128 C140.151364,29.8806122 139.88277,30.1450964 139.547028,30.3434596 L139.681325,30.6079438 L139.479879,30.3434596 C139.345583,30.4095806 139.278434,30.4095806 139.144137,30.4757017 C139.076989,30.4757017 139.00984,30.5418227 138.942692,30.5418227 C138.472653,30.6740648 138.136911,30.6740648 137.532575,30.4757017 C137.465427,30.4757017 137.465427,30.4757017 137.398278,30.4095806 C137.33113,30.4095806 137.33113,30.3434596 137.263981,30.3434596 C137.263981,30.3434596 137.129684,30.2773385 137.129684,30.2773385 C137.062536,30.2773385 136.995388,30.2112175 136.995388,30.2112175 C136.592497,29.9467333 136.323903,29.5500069 136.122458,29.1532806 C135.988161,28.8226754 135.921013,28.425949 135.921013,28.0292227 L135.921013,27.8969806 C135.921013,27.5663754 135.921013,27.2357701 135.921013,26.8390438 L135.921013,11.4328386 L141.091442,11.4328386 C141.360035,11.4328386 141.561481,11.2344754 141.561481,10.9699912 L141.561481,9.3169649 C141.628629,8.98635964 141.427184,8.78799649 141.15859,8.78799649 Z" id="Shape"></path>
                <path d="M41.659949,10.9261672 C41.1957822,10.8598169 40.7316154,10.8598169 40.3337581,10.9261672 C38.9412575,11.1915685 37.548757,12.2531737 35.4268515,14.177333 L35.0289942,11.4569698 C35.0289942,11.3242692 34.8963751,11.1252182 34.763756,11.0588679 C34.6311369,10.9925176 34.4985178,10.9261672 34.2995891,10.9261672 L27.7349438,11.9877724 C27.6023247,11.9877724 27.4697056,12.120473 27.4697056,12.319524 L27.4697056,13.5801801 C27.4697056,13.7128808 27.6023247,13.9119317 27.7349438,13.9119317 L29.3926825,14.177333 C30.1883971,14.3100337 30.4536353,14.3100337 30.4536353,15.8360911 L30.4536353,29.3052066 C30.4536353,31.2293659 30.4536353,31.2957162 27.4697056,31.4947672 C27.270777,31.4947672 27.1381579,31.6274679 27.1381579,31.8265188 L27.1381579,33.2862259 C27.1381579,33.4852769 27.270777,33.6179775 27.4697056,33.6179775 L39.3391148,33.6179775 C39.5380435,33.6179775 39.6706626,33.4852769 39.6706626,33.2862259 L39.6706626,31.8265188 C39.6706626,31.6274679 39.5380435,31.4947672 39.3391148,31.4947672 C35.5594706,31.2957162 35.5594706,31.2293659 35.5594706,29.3052066 L35.5594706,19.2863079 C35.5594706,17.9593014 35.8247088,16.1678427 37.0182806,15.3716388 C37.3498284,15.1725879 37.8803048,15.0398872 38.0792334,15.1725879 C38.145543,15.2389382 38.2118525,15.3052885 38.3444716,15.5043395 C39.0738766,16.4995943 40.0022103,17.0303969 40.930544,17.0303969 C42.6545923,17.0303969 43.9144737,15.8360911 43.9144737,14.0446324 C43.9144737,13.1820782 43.6492355,12.3858743 43.1187591,11.7887214 C42.7872114,11.3242692 42.256735,11.0588679 41.659949,10.9261672 Z" id="Shape"></path>
            </g>
        </g>
    </g>
</svg>